<svg width="1906" height="538" viewBox="0 0 1906 538" fill="none" xmlns="http://www.w3.org/2000/svg">
<g clip-path="url(#clip0_225_14)">
<rect width="1906" height="538" fill="white"/>
<rect y="-0.147461" width="1906" height="538.148" fill="#60A5FA"/>
<g filter="url(#filter0_d_225_14)">
<path d="M662.248 387.004L643.497 441.411C641.697 446.633 636 449.422 630.772 447.643L481.438 396.805C479.349 396.094 477.556 394.712 476.339 392.875L451.783 355.8C448.281 350.512 450.555 343.334 456.474 340.992L500.049 323.752C502.266 322.875 504.721 322.814 506.974 323.581L656.04 374.327C661.268 376.107 664.048 381.783 662.248 387.004Z" fill="#4998FB"/>
</g>
<g filter="url(#filter1_d_225_14)">
<path d="M1276.64 79.8998L1233.02 117.442C1228.84 121.045 1222.51 120.584 1218.89 116.412L1115.53 -2.75625C1114.08 -4.4238 1113.23 -6.52096 1113.1 -8.72079L1110.58 -53.1189C1110.22 -59.4511 1115.8 -64.5046 1122.09 -63.5443L1168.42 -56.4753C1170.77 -56.1157 1172.93 -54.9305 1174.49 -53.1328L1277.66 65.8218C1281.28 69.9939 1280.82 76.2969 1276.64 79.8998Z" fill="#4998FB"/>
</g>
<g filter="url(#filter2_d_225_14)">
<path d="M1524.41 322.984L1479.76 286.676C1475.47 283.191 1474.81 276.882 1478.28 272.584L1577.35 149.82C1578.73 148.102 1580.65 146.894 1582.79 146.382L1626.05 136.065C1632.21 134.593 1638.17 139.196 1638.34 145.559L1639.55 192.405C1639.61 194.788 1638.83 197.115 1637.33 198.967L1538.45 321.511C1534.98 325.809 1528.69 326.469 1524.41 322.984Z" fill="#4998FB"/>
</g>
<g filter="url(#filter3_d_225_14)">
<path d="M210.502 -43.3129C216.838 -51.856 230.404 -47.2849 230.323 -36.6342L229.834 27.4045C229.798 32.1687 232.827 36.4213 237.338 37.9415L298.106 58.4175C308.214 61.8232 308.076 76.1878 297.905 79.3601L236.919 98.3825C232.363 99.8033 229.25 104.008 229.213 108.788L228.726 172.706C228.644 183.365 214.993 187.672 208.796 178.993L171.478 126.726C168.714 122.855 163.784 121.194 159.254 122.607L98.0812 141.687C87.9235 144.856 79.6244 133.153 85.9655 124.603L123.99 73.333C126.834 69.4987 126.878 64.2599 124.099 60.3678L86.8948 8.25984C80.6902 -0.430223 89.2129 -11.9696 99.3204 -8.56381L160.089 11.9121C164.6 13.4324 169.571 11.8752 172.406 8.05378L210.502 -43.3129Z" fill="#4998FB"/>
</g>
<g filter="url(#filter4_d_225_14)">
<path d="M1036.5 66.6871C1042.84 58.144 1056.4 62.7151 1056.32 73.3658L1055.83 137.405C1055.8 142.169 1058.83 146.421 1063.34 147.942L1124.11 168.417C1134.21 171.823 1134.08 186.188 1123.91 189.36L1062.92 208.382C1058.36 209.803 1055.25 214.008 1055.21 218.788L1054.73 282.706C1054.64 293.365 1040.99 297.672 1034.8 288.993L997.478 236.726C994.714 232.855 989.784 231.194 985.254 232.607L924.081 251.687C913.924 254.856 905.624 243.153 911.966 234.603L949.99 183.333C952.834 179.499 952.878 174.26 950.099 170.368L912.895 118.26C906.69 109.57 915.213 98.0304 925.32 101.436L986.089 121.912C990.6 123.432 995.571 121.875 998.406 118.054L1036.5 66.6871Z" fill="#4998FB"/>
</g>
<g filter="url(#filter5_d_225_14)">
<circle cx="25" cy="326" r="90" fill="#4998FB"/>
</g>
<g filter="url(#filter6_d_225_14)">
<circle cx="1154" cy="424" r="90" fill="#4998FB"/>
</g>
<g filter="url(#filter7_d_225_14)">
<circle cx="1778" cy="244" r="90" fill="#4998FB"/>
</g>
<g filter="url(#filter8_d_225_14)">
<circle cx="736" cy="220" r="90" fill="#4998FB"/>
</g>
<g filter="url(#filter9_d_225_14)">
<path d="M299.182 250.494C306.164 244.444 317.076 248.221 318.824 257.291L351.933 429.067C353.681 438.137 344.954 445.699 336.225 442.678L170.908 385.463C162.179 382.442 159.993 371.104 166.975 365.054L299.182 250.494Z" fill="#4998FB"/>
</g>
<g filter="url(#filter10_d_225_14)">
<path d="M935.128 521.479C936.564 530.605 927.583 537.862 918.962 534.543L755.707 471.69C747.086 468.371 745.291 456.964 752.475 451.158L888.536 341.201C895.721 335.395 906.497 339.544 907.933 348.669L935.128 521.479Z" fill="#4998FB"/>
</g>
<g filter="url(#filter11_d_225_14)">
<path d="M1464.34 119.829C1460.01 127.984 1448.47 128.384 1443.57 120.549L1350.91 -27.8315C1346.02 -35.6668 1351.44 -45.8607 1360.67 -46.1806L1535.51 -52.2383C1544.74 -52.5582 1550.85 -42.7641 1546.51 -34.609L1464.34 119.829Z" fill="#4998FB"/>
</g>
<g filter="url(#filter12_d_225_14)">
<rect x="110.579" y="451" width="180" height="180" rx="37" transform="rotate(28.7505 110.579 451)" fill="#4998FB"/>
</g>
<g filter="url(#filter13_d_225_14)">
<rect x="455.579" y="8" width="180" height="180" rx="37" transform="rotate(28.7505 455.579 8)" fill="#4998FB"/>
</g>
<g filter="url(#filter14_d_225_14)">
<rect x="1281.58" y="98" width="180" height="180" rx="37" transform="rotate(28.7505 1281.58 98)" fill="#4998FB"/>
</g>
<g filter="url(#filter15_d_225_14)">
<rect x="1670" y="441.443" width="180" height="180" rx="37" transform="rotate(-22.6933 1670 441.443)" fill="#4998FB"/>
</g>
<g filter="url(#filter16_d_225_14)">
<path d="M497.502 453.687C503.838 445.144 517.404 449.715 517.323 460.366L516.834 524.405C516.798 529.169 519.827 533.421 524.338 534.942L585.106 555.417C595.214 558.823 595.076 573.188 584.905 576.36L523.919 595.382C519.363 596.803 516.25 601.008 516.213 605.788L515.726 669.706C515.644 680.365 501.993 684.672 495.796 675.993L458.478 623.726C455.714 619.855 450.784 618.194 446.254 619.607L385.081 638.687C374.924 641.856 366.624 630.153 372.966 621.603L410.99 570.333C413.834 566.499 413.878 561.26 411.099 557.368L373.895 505.26C367.69 496.57 376.213 485.03 386.32 488.436L447.089 508.912C451.6 510.432 456.571 508.875 459.406 505.054L497.502 453.687Z" fill="#4998FB"/>
</g>
<g filter="url(#filter17_d_225_14)">
<path d="M1465.5 383.687C1471.84 375.144 1485.4 379.715 1485.32 390.366L1484.83 454.405C1484.8 459.169 1487.83 463.421 1492.34 464.942L1553.11 485.417C1563.21 488.823 1563.08 503.188 1552.91 506.36L1491.92 525.382C1487.36 526.803 1484.25 531.008 1484.21 535.788L1483.73 599.706C1483.64 610.365 1469.99 614.672 1463.8 605.993L1426.48 553.726C1423.71 549.855 1418.78 548.194 1414.25 549.607L1353.08 568.687C1342.92 571.856 1334.62 560.153 1340.97 551.603L1378.99 500.333C1381.83 496.499 1381.88 491.26 1379.1 487.368L1341.89 435.26C1335.69 426.57 1344.21 415.03 1354.32 418.436L1415.09 438.912C1419.6 440.432 1424.57 438.875 1427.41 435.054L1465.5 383.687Z" fill="#4998FB"/>
</g>
<g filter="url(#filter18_d_225_14)">
<path d="M660.955 -56.0663L706.732 -90.9404C711.125 -94.2873 717.413 -93.4493 720.777 -89.0688L816.847 36.0527C818.191 37.8036 818.917 39.9478 818.911 42.1512L818.783 86.6209C818.765 92.9633 812.892 97.6749 806.667 96.3409L760.846 86.5212C758.515 86.0216 756.438 84.7102 754.989 82.8228L659.09 -42.0746C655.727 -46.4552 656.562 -52.7195 660.955 -56.0663Z" fill="#4998FB"/>
</g>
<g filter="url(#filter19_d_225_14)">
<path d="M1824.22 -101.724C1834.17 -105.497 1843.12 -94.3266 1837.3 -85.4043L1802.33 -31.7575C1799.72 -27.7665 1799.98 -22.5519 1802.96 -18.837L1843.06 31.1986C1849.73 39.521 1841.86 51.5392 1831.59 48.7204L1769.98 31.8181C1765.38 30.5556 1760.49 32.4148 1757.88 36.4193L1722.97 89.965C1717.15 98.8945 1703.33 95.1515 1702.8 84.5008L1699.59 20.3589C1699.36 15.6084 1696.1 11.5492 1691.53 10.2935L1629.73 -6.66029C1619.47 -9.47547 1618.8 -23.8065 1628.75 -27.5817L1688.43 -50.2198C1692.9 -51.9128 1695.76 -56.2993 1695.52 -61.0758L1692.33 -125.023C1691.79 -135.687 1705.2 -140.801 1711.87 -132.479L1751.97 -82.4433C1754.95 -78.7283 1759.98 -77.3563 1764.42 -79.0436L1824.22 -101.724Z" fill="#4998FB"/>
</g>
</g>
<defs>
<filter id="filter0_d_225_14" x="446.126" y="323.047" width="220.67" height="133.133" filterUnits="userSpaceOnUse" color-interpolation-filters="sRGB">
<feFlood flood-opacity="0" result="BackgroundImageFix"/>
<feColorMatrix in="SourceAlpha" type="matrix" values="0 0 0 0 0 0 0 0 0 0 0 0 0 0 0 0 0 0 127 0" result="hardAlpha"/>
<feOffset dy="4"/>
<feGaussianBlur stdDeviation="2"/>
<feComposite in2="hardAlpha" operator="out"/>
<feColorMatrix type="matrix" values="0 0 0 0 0.222722 0 0 0 0 0.438061 0 0 0 0 0.703333 0 0 0 1 0"/>
<feBlend mode="normal" in2="BackgroundImageFix" result="effect1_dropShadow_225_14"/>
<feBlend mode="normal" in="SourceGraphic" in2="effect1_dropShadow_225_14" result="shape"/>
</filter>
<filter id="filter1_d_225_14" x="1106.56" y="-63.6621" width="177.541" height="191.531" filterUnits="userSpaceOnUse" color-interpolation-filters="sRGB">
<feFlood flood-opacity="0" result="BackgroundImageFix"/>
<feColorMatrix in="SourceAlpha" type="matrix" values="0 0 0 0 0 0 0 0 0 0 0 0 0 0 0 0 0 0 127 0" result="hardAlpha"/>
<feOffset dy="4"/>
<feGaussianBlur stdDeviation="2"/>
<feComposite in2="hardAlpha" operator="out"/>
<feColorMatrix type="matrix" values="0 0 0 0 0.222722 0 0 0 0 0.438061 0 0 0 0 0.703333 0 0 0 1 0"/>
<feBlend mode="normal" in2="BackgroundImageFix" result="effect1_dropShadow_225_14"/>
<feBlend mode="normal" in="SourceGraphic" in2="effect1_dropShadow_225_14" result="shape"/>
</filter>
<filter id="filter2_d_225_14" x="1472.06" y="135.789" width="171.499" height="197.432" filterUnits="userSpaceOnUse" color-interpolation-filters="sRGB">
<feFlood flood-opacity="0" result="BackgroundImageFix"/>
<feColorMatrix in="SourceAlpha" type="matrix" values="0 0 0 0 0 0 0 0 0 0 0 0 0 0 0 0 0 0 127 0" result="hardAlpha"/>
<feOffset dy="4"/>
<feGaussianBlur stdDeviation="2"/>
<feComposite in2="hardAlpha" operator="out"/>
<feColorMatrix type="matrix" values="0 0 0 0 0.222722 0 0 0 0 0.438061 0 0 0 0 0.703333 0 0 0 1 0"/>
<feBlend mode="normal" in2="BackgroundImageFix" result="effect1_dropShadow_225_14"/>
<feBlend mode="normal" in="SourceGraphic" in2="effect1_dropShadow_225_14" result="shape"/>
</filter>
<filter id="filter3_d_225_14" x="79.7529" y="-47.7686" width="229.857" height="239.397" filterUnits="userSpaceOnUse" color-interpolation-filters="sRGB">
<feFlood flood-opacity="0" result="BackgroundImageFix"/>
<feColorMatrix in="SourceAlpha" type="matrix" values="0 0 0 0 0 0 0 0 0 0 0 0 0 0 0 0 0 0 127 0" result="hardAlpha"/>
<feOffset dy="4"/>
<feGaussianBlur stdDeviation="2"/>
<feComposite in2="hardAlpha" operator="out"/>
<feColorMatrix type="matrix" values="0 0 0 0 0.313133 0 0 0 0 0.567119 0 0 0 0 0.88 0 0 0 1 0"/>
<feBlend mode="normal" in2="BackgroundImageFix" result="effect1_dropShadow_225_14"/>
<feBlend mode="normal" in="SourceGraphic" in2="effect1_dropShadow_225_14" result="shape"/>
</filter>
<filter id="filter4_d_225_14" x="905.753" y="62.2314" width="229.857" height="239.397" filterUnits="userSpaceOnUse" color-interpolation-filters="sRGB">
<feFlood flood-opacity="0" result="BackgroundImageFix"/>
<feColorMatrix in="SourceAlpha" type="matrix" values="0 0 0 0 0 0 0 0 0 0 0 0 0 0 0 0 0 0 127 0" result="hardAlpha"/>
<feOffset dy="4"/>
<feGaussianBlur stdDeviation="2"/>
<feComposite in2="hardAlpha" operator="out"/>
<feColorMatrix type="matrix" values="0 0 0 0 0.313133 0 0 0 0 0.567119 0 0 0 0 0.88 0 0 0 1 0"/>
<feBlend mode="normal" in2="BackgroundImageFix" result="effect1_dropShadow_225_14"/>
<feBlend mode="normal" in="SourceGraphic" in2="effect1_dropShadow_225_14" result="shape"/>
</filter>
<filter id="filter5_d_225_14" x="-69" y="236" width="188" height="188" filterUnits="userSpaceOnUse" color-interpolation-filters="sRGB">
<feFlood flood-opacity="0" result="BackgroundImageFix"/>
<feColorMatrix in="SourceAlpha" type="matrix" values="0 0 0 0 0 0 0 0 0 0 0 0 0 0 0 0 0 0 127 0" result="hardAlpha"/>
<feOffset dy="4"/>
<feGaussianBlur stdDeviation="2"/>
<feComposite in2="hardAlpha" operator="out"/>
<feColorMatrix type="matrix" values="0 0 0 0 0.339097 0 0 0 0 0.568805 0 0 0 0 0.856667 0 0 0 1 0"/>
<feBlend mode="normal" in2="BackgroundImageFix" result="effect1_dropShadow_225_14"/>
<feBlend mode="normal" in="SourceGraphic" in2="effect1_dropShadow_225_14" result="shape"/>
</filter>
<filter id="filter6_d_225_14" x="1060" y="334" width="188" height="188" filterUnits="userSpaceOnUse" color-interpolation-filters="sRGB">
<feFlood flood-opacity="0" result="BackgroundImageFix"/>
<feColorMatrix in="SourceAlpha" type="matrix" values="0 0 0 0 0 0 0 0 0 0 0 0 0 0 0 0 0 0 127 0" result="hardAlpha"/>
<feOffset dy="4"/>
<feGaussianBlur stdDeviation="2"/>
<feComposite in2="hardAlpha" operator="out"/>
<feColorMatrix type="matrix" values="0 0 0 0 0.339097 0 0 0 0 0.568805 0 0 0 0 0.856667 0 0 0 1 0"/>
<feBlend mode="normal" in2="BackgroundImageFix" result="effect1_dropShadow_225_14"/>
<feBlend mode="normal" in="SourceGraphic" in2="effect1_dropShadow_225_14" result="shape"/>
</filter>
<filter id="filter7_d_225_14" x="1684" y="154" width="188" height="188" filterUnits="userSpaceOnUse" color-interpolation-filters="sRGB">
<feFlood flood-opacity="0" result="BackgroundImageFix"/>
<feColorMatrix in="SourceAlpha" type="matrix" values="0 0 0 0 0 0 0 0 0 0 0 0 0 0 0 0 0 0 127 0" result="hardAlpha"/>
<feOffset dy="4"/>
<feGaussianBlur stdDeviation="2"/>
<feComposite in2="hardAlpha" operator="out"/>
<feColorMatrix type="matrix" values="0 0 0 0 0.339097 0 0 0 0 0.568805 0 0 0 0 0.856667 0 0 0 1 0"/>
<feBlend mode="normal" in2="BackgroundImageFix" result="effect1_dropShadow_225_14"/>
<feBlend mode="normal" in="SourceGraphic" in2="effect1_dropShadow_225_14" result="shape"/>
</filter>
<filter id="filter8_d_225_14" x="642" y="130" width="188" height="188" filterUnits="userSpaceOnUse" color-interpolation-filters="sRGB">
<feFlood flood-opacity="0" result="BackgroundImageFix"/>
<feColorMatrix in="SourceAlpha" type="matrix" values="0 0 0 0 0 0 0 0 0 0 0 0 0 0 0 0 0 0 127 0" result="hardAlpha"/>
<feOffset dy="4"/>
<feGaussianBlur stdDeviation="2"/>
<feComposite in2="hardAlpha" operator="out"/>
<feColorMatrix type="matrix" values="0 0 0 0 0.339097 0 0 0 0 0.568805 0 0 0 0 0.856667 0 0 0 1 0"/>
<feBlend mode="normal" in2="BackgroundImageFix" result="effect1_dropShadow_225_14"/>
<feBlend mode="normal" in="SourceGraphic" in2="effect1_dropShadow_225_14" result="shape"/>
</filter>
<filter id="filter9_d_225_14" x="158.829" y="247.552" width="197.329" height="203.803" filterUnits="userSpaceOnUse" color-interpolation-filters="sRGB">
<feFlood flood-opacity="0" result="BackgroundImageFix"/>
<feColorMatrix in="SourceAlpha" type="matrix" values="0 0 0 0 0 0 0 0 0 0 0 0 0 0 0 0 0 0 127 0" result="hardAlpha"/>
<feOffset dy="4"/>
<feGaussianBlur stdDeviation="2"/>
<feComposite in2="hardAlpha" operator="out"/>
<feColorMatrix type="matrix" values="0 0 0 0 0.248306 0 0 0 0 0.496488 0 0 0 0 0.8075 0 0 0 1 0"/>
<feBlend mode="normal" in2="BackgroundImageFix" result="effect1_dropShadow_225_14"/>
<feBlend mode="normal" in="SourceGraphic" in2="effect1_dropShadow_225_14" result="shape"/>
</filter>
<filter id="filter10_d_225_14" x="744.016" y="338.521" width="195.265" height="204.841" filterUnits="userSpaceOnUse" color-interpolation-filters="sRGB">
<feFlood flood-opacity="0" result="BackgroundImageFix"/>
<feColorMatrix in="SourceAlpha" type="matrix" values="0 0 0 0 0 0 0 0 0 0 0 0 0 0 0 0 0 0 127 0" result="hardAlpha"/>
<feOffset dy="4"/>
<feGaussianBlur stdDeviation="2"/>
<feComposite in2="hardAlpha" operator="out"/>
<feColorMatrix type="matrix" values="0 0 0 0 0.248306 0 0 0 0 0.496488 0 0 0 0 0.8075 0 0 0 1 0"/>
<feBlend mode="normal" in2="BackgroundImageFix" result="effect1_dropShadow_225_14"/>
<feBlend mode="normal" in="SourceGraphic" in2="effect1_dropShadow_225_14" result="shape"/>
</filter>
<filter id="filter11_d_225_14" x="1345.07" y="-52.2461" width="206.868" height="186.438" filterUnits="userSpaceOnUse" color-interpolation-filters="sRGB">
<feFlood flood-opacity="0" result="BackgroundImageFix"/>
<feColorMatrix in="SourceAlpha" type="matrix" values="0 0 0 0 0 0 0 0 0 0 0 0 0 0 0 0 0 0 127 0" result="hardAlpha"/>
<feOffset dy="4"/>
<feGaussianBlur stdDeviation="2"/>
<feComposite in2="hardAlpha" operator="out"/>
<feColorMatrix type="matrix" values="0 0 0 0 0.248306 0 0 0 0 0.496488 0 0 0 0 0.8075 0 0 0 1 0"/>
<feBlend mode="normal" in2="BackgroundImageFix" result="effect1_dropShadow_225_14"/>
<feBlend mode="normal" in="SourceGraphic" in2="effect1_dropShadow_225_14" result="shape"/>
</filter>
<filter id="filter12_d_225_14" x="33.2285" y="464.229" width="225.932" height="225.933" filterUnits="userSpaceOnUse" color-interpolation-filters="sRGB">
<feFlood flood-opacity="0" result="BackgroundImageFix"/>
<feColorMatrix in="SourceAlpha" type="matrix" values="0 0 0 0 0 0 0 0 0 0 0 0 0 0 0 0 0 0 127 0" result="hardAlpha"/>
<feOffset dy="4"/>
<feGaussianBlur stdDeviation="2"/>
<feComposite in2="hardAlpha" operator="out"/>
<feColorMatrix type="matrix" values="0 0 0 0 0.247467 0 0 0 0 0.516363 0 0 0 0 0.853333 0 0 0 1 0"/>
<feBlend mode="normal" in2="BackgroundImageFix" result="effect1_dropShadow_225_14"/>
<feBlend mode="normal" in="SourceGraphic" in2="effect1_dropShadow_225_14" result="shape"/>
</filter>
<filter id="filter13_d_225_14" x="378.229" y="21.2285" width="225.932" height="225.933" filterUnits="userSpaceOnUse" color-interpolation-filters="sRGB">
<feFlood flood-opacity="0" result="BackgroundImageFix"/>
<feColorMatrix in="SourceAlpha" type="matrix" values="0 0 0 0 0 0 0 0 0 0 0 0 0 0 0 0 0 0 127 0" result="hardAlpha"/>
<feOffset dy="4"/>
<feGaussianBlur stdDeviation="2"/>
<feComposite in2="hardAlpha" operator="out"/>
<feColorMatrix type="matrix" values="0 0 0 0 0.247467 0 0 0 0 0.516363 0 0 0 0 0.853333 0 0 0 1 0"/>
<feBlend mode="normal" in2="BackgroundImageFix" result="effect1_dropShadow_225_14"/>
<feBlend mode="normal" in="SourceGraphic" in2="effect1_dropShadow_225_14" result="shape"/>
</filter>
<filter id="filter14_d_225_14" x="1204.23" y="111.229" width="225.932" height="225.933" filterUnits="userSpaceOnUse" color-interpolation-filters="sRGB">
<feFlood flood-opacity="0" result="BackgroundImageFix"/>
<feColorMatrix in="SourceAlpha" type="matrix" values="0 0 0 0 0 0 0 0 0 0 0 0 0 0 0 0 0 0 127 0" result="hardAlpha"/>
<feOffset dy="4"/>
<feGaussianBlur stdDeviation="2"/>
<feComposite in2="hardAlpha" operator="out"/>
<feColorMatrix type="matrix" values="0 0 0 0 0.247467 0 0 0 0 0.516363 0 0 0 0 0.853333 0 0 0 1 0"/>
<feBlend mode="normal" in2="BackgroundImageFix" result="effect1_dropShadow_225_14"/>
<feBlend mode="normal" in="SourceGraphic" in2="effect1_dropShadow_225_14" result="shape"/>
</filter>
<filter id="filter15_d_225_14" x="1677.4" y="383.4" width="220.708" height="220.707" filterUnits="userSpaceOnUse" color-interpolation-filters="sRGB">
<feFlood flood-opacity="0" result="BackgroundImageFix"/>
<feColorMatrix in="SourceAlpha" type="matrix" values="0 0 0 0 0 0 0 0 0 0 0 0 0 0 0 0 0 0 127 0" result="hardAlpha"/>
<feOffset dy="4"/>
<feGaussianBlur stdDeviation="2"/>
<feComposite in2="hardAlpha" operator="out"/>
<feColorMatrix type="matrix" values="0 0 0 0 0.247467 0 0 0 0 0.516363 0 0 0 0 0.853333 0 0 0 1 0"/>
<feBlend mode="normal" in2="BackgroundImageFix" result="effect1_dropShadow_225_14"/>
<feBlend mode="normal" in="SourceGraphic" in2="effect1_dropShadow_225_14" result="shape"/>
</filter>
<filter id="filter16_d_225_14" x="366.753" y="449.231" width="229.857" height="239.397" filterUnits="userSpaceOnUse" color-interpolation-filters="sRGB">
<feFlood flood-opacity="0" result="BackgroundImageFix"/>
<feColorMatrix in="SourceAlpha" type="matrix" values="0 0 0 0 0 0 0 0 0 0 0 0 0 0 0 0 0 0 127 0" result="hardAlpha"/>
<feOffset dy="4"/>
<feGaussianBlur stdDeviation="2"/>
<feComposite in2="hardAlpha" operator="out"/>
<feColorMatrix type="matrix" values="0 0 0 0 0.313133 0 0 0 0 0.567119 0 0 0 0 0.88 0 0 0 1 0"/>
<feBlend mode="normal" in2="BackgroundImageFix" result="effect1_dropShadow_225_14"/>
<feBlend mode="normal" in="SourceGraphic" in2="effect1_dropShadow_225_14" result="shape"/>
</filter>
<filter id="filter17_d_225_14" x="1334.75" y="379.231" width="229.857" height="239.397" filterUnits="userSpaceOnUse" color-interpolation-filters="sRGB">
<feFlood flood-opacity="0" result="BackgroundImageFix"/>
<feColorMatrix in="SourceAlpha" type="matrix" values="0 0 0 0 0 0 0 0 0 0 0 0 0 0 0 0 0 0 127 0" result="hardAlpha"/>
<feOffset dy="4"/>
<feGaussianBlur stdDeviation="2"/>
<feComposite in2="hardAlpha" operator="out"/>
<feColorMatrix type="matrix" values="0 0 0 0 0.313133 0 0 0 0 0.567119 0 0 0 0 0.88 0 0 0 1 0"/>
<feBlend mode="normal" in2="BackgroundImageFix" result="effect1_dropShadow_225_14"/>
<feBlend mode="normal" in="SourceGraphic" in2="effect1_dropShadow_225_14" result="shape"/>
</filter>
<filter id="filter18_d_225_14" x="653.026" y="-92.9912" width="169.884" height="197.56" filterUnits="userSpaceOnUse" color-interpolation-filters="sRGB">
<feFlood flood-opacity="0" result="BackgroundImageFix"/>
<feColorMatrix in="SourceAlpha" type="matrix" values="0 0 0 0 0 0 0 0 0 0 0 0 0 0 0 0 0 0 127 0" result="hardAlpha"/>
<feOffset dy="4"/>
<feGaussianBlur stdDeviation="2"/>
<feComposite in2="hardAlpha" operator="out"/>
<feColorMatrix type="matrix" values="0 0 0 0 0.222722 0 0 0 0 0.438061 0 0 0 0 0.703333 0 0 0 1 0"/>
<feBlend mode="normal" in2="BackgroundImageFix" result="effect1_dropShadow_225_14"/>
<feBlend mode="normal" in="SourceGraphic" in2="effect1_dropShadow_225_14" result="shape"/>
</filter>
<filter id="filter19_d_225_14" x="1617.65" y="-136.618" width="231.883" height="239.591" filterUnits="userSpaceOnUse" color-interpolation-filters="sRGB">
<feFlood flood-opacity="0" result="BackgroundImageFix"/>
<feColorMatrix in="SourceAlpha" type="matrix" values="0 0 0 0 0 0 0 0 0 0 0 0 0 0 0 0 0 0 127 0" result="hardAlpha"/>
<feOffset dy="4"/>
<feGaussianBlur stdDeviation="2"/>
<feComposite in2="hardAlpha" operator="out"/>
<feColorMatrix type="matrix" values="0 0 0 0 0.313133 0 0 0 0 0.567119 0 0 0 0 0.88 0 0 0 1 0"/>
<feBlend mode="normal" in2="BackgroundImageFix" result="effect1_dropShadow_225_14"/>
<feBlend mode="normal" in="SourceGraphic" in2="effect1_dropShadow_225_14" result="shape"/>
</filter>
<clipPath id="clip0_225_14">
<rect width="1906" height="538" fill="white"/>
</clipPath>
</defs>
</svg>
