<svg width="200" height="212" viewBox="0 0 200 212" fill="none" xmlns="http://www.w3.org/2000/svg">
<circle cx="100" cy="112" r="100" fill="#0062CC"/>
<path d="M95.12 179.62C92.72 179.62 90.02 179.38 87.02 178.9C84.14 178.42 81.38 177.82 78.74 177.1C76.22 176.38 74.24 175.6 72.8 174.76C71.96 174.28 71.3 173.8 70.82 173.32C70.46 172.72 70.28 171.76 70.28 170.44L69.38 142.18C69.38 139.78 70.16 138.58 71.72 138.58C73.04 138.58 73.94 139.66 74.42 141.82L76.04 148.66C80.12 165.82 87.74 174.4 98.9 174.4C104.9 174.4 109.64 172.42 113.12 168.46C116.72 164.38 118.52 158.68 118.52 151.36C118.52 144.28 116.66 137.68 112.94 131.56C109.34 125.44 103.52 119.38 95.48 113.38C86.6 107.02 80.12 100.9 76.04 95.02C71.96 89.02 69.92 82.66 69.92 75.94C69.92 67.06 72.98 59.98 79.1 54.7C85.34 49.3 93.26 46.6 102.86 46.6C106.46 46.6 109.94 47.02 113.3 47.86C116.66 48.7 119.42 49.9 121.58 51.46C122.3 51.94 122.84 52.48 123.2 53.08C123.68 53.68 123.92 54.46 123.92 55.42L124.46 82.6C124.46 84.64 123.68 85.66 122.12 85.66C121.04 85.66 120.26 84.82 119.78 83.14L118.52 78.64C115.88 69.4 113.12 62.68 110.24 58.48C107.48 54.16 103.46 52 98.18 52C93.02 52 88.88 53.68 85.76 57.04C82.76 60.4 81.26 65.14 81.26 71.26C81.26 76.42 82.94 81.34 86.3 86.02C89.66 90.7 95.54 96.4 103.94 103.12C112.94 110.44 119.48 117.52 123.56 124.36C127.76 131.08 129.86 138.28 129.86 145.96C129.86 152.68 128.36 158.56 125.36 163.6C122.36 168.64 118.22 172.6 112.94 175.48C107.78 178.24 101.84 179.62 95.12 179.62Z" fill="white"/>
<line x1="34" y1="110.5" x2="168" y2="110.5" stroke="white" stroke-width="3"/>
</svg>
